# xmcd
#
# Track frame offsets:
#	150
#	15735
#	35912
#	50228
#	66444
#	90455
#	105470
#	119405
#	133971
#	153415
#	170193
#	188440
#	208047
#	222395
#	244437
#
# Disc length: 3621 seconds
#
# Revision: 1
# Processed by: cddbd v1.4PL0 Copyright (c) Steve Scherf et al.
# Submitted via: EasyCDDAExtractor 5.0.7
#
DISCID=e90e230f
DTITLE=Friends of Ralph Bryan - When You Were Near
DYEAR=2003
DGENRE=
TTITLE0=Ensemble- People Get Ready
TTITLE1=Big Bill and the Cool Tones- Pool Fool
TTITLE2=John Allair- Way Too Fast
TTITLE3=Real Tones w-Steve Judkins- I Need a Girl
TTITLE4=Volker Strifler and the Blue Zone
TTITLE5=Danny Sorentino- I Don't Know Why
TTITLE6=Trailer Park Rangers- Eleanor Darby
TTITLE7=Real Tones w-Steve Judkins
TTITLE8=Stone Point- Can't Dance
TTITLE9=Dr Joel Rudinow- Ethyl's Place
TTITLE10=Michael Barclay Blues Band- Gimme A Break
TTITLE11=Earl Thomas- I'm Broker Hearted
TTITLE12=Ralph Bryan and Steve Judkins- So Sad to be Lonesome
TTITLE13=Ralph Bryan- Baby You're Gone Now
TTITLE14=Elena Bryan- When You Were Near
EXTD=
EXTT0=
EXTT1=
EXTT2=
EXTT3=
EXTT4=
EXTT5=
EXTT6=
EXTT7=
EXTT8=
EXTT9=
EXTT10=
EXTT11=
EXTT12=
EXTT13=
EXTT14=
PLAYORDER=
